<svg width="28" height="37" viewBox="0 0 28 37" fill="none" xmlns="http://www.w3.org/2000/svg">
<path d="M11.8075 11.0588C12.5773 9.7255 14.5018 9.7255 15.2716 11.0588L21.7668 22.3088C22.5366 23.6422 21.5743 25.3088 20.0347 25.3088H7.04436C5.50476 25.3088 4.54251 23.6422 5.31231 22.3088L11.8075 11.0588Z" stroke="#FF0000" stroke-width="2"/>
<path d="M14.6474 14.3316H12.7511L12.9215 20.4424H14.4812L14.6474 14.3316ZM13.7013 23.1696C14.2468 23.1696 14.7198 22.7137 14.7241 22.1469C14.7198 21.5887 14.2468 21.1327 13.7013 21.1327C13.1388 21.1327 12.6744 21.5887 12.6786 22.1469C12.6744 22.7137 13.1388 23.1696 13.7013 23.1696Z" fill="#FF0000"/>
</svg>
